# xmcd
#
# Track frame offsets:
# 150
# 782
# 25777
# 64856
# 83971
# 116920
# 151085
# 183215
# 202424
# 236532
# 267361
# 295575
#
# Disc length: 3945 seconds
#
#
# Revision: 0
# Processed by: cddbd v1.5.2PL0 Copyright (c) Steve Scherf et al.
# Submitted via: FreeRIP 2.96 
#
DISCID=990f670c
DTITLE=Ingrid Noll - Die Apothekerin
DYEAR=1997
DGENRE=Speech
TTITLE0=01 Die Apothekerin
TTITLE1=02 Die Apothekerin
TTITLE2=03 Die Apothekerin
TTITLE3=04 Die Apothekerin
TTITLE4=05 Die Apothekerin
TTITLE5=06 Die Apothekerin
TTITLE6=07 Die Apothekerin
TTITLE7=08 Die Apothekerin
TTITLE8=09 Die Apothekerin
TTITLE9=10 Die Apothekerin
TTITLE10=11 Die Apothekerin
TTITLE11=zur Fortsetzung CD2 einlegen
EXTD=gelesen von Silvia Jost
EXTT0=
EXTT1=
EXTT2=
EXTT3=
EXTT4=
EXTT5=
EXTT6=
EXTT7=
EXTT8=
EXTT9=
EXTT10=
EXTT11=
PLAYORDER=
